<svg width="35" height="32" viewBox="0 0 35 32" fill="none" xmlns="http://www.w3.org/2000/svg">
<path d="M16.6822 4.69556L17.5 5.8579L18.3178 4.69556C19.8954 2.45343 22.4551 1 25.3454 1C30.1064 1 34 4.94214 34 9.84677C34 10.5346 33.9145 11.2053 33.7635 11.8587L33.7555 11.8932L33.75 11.9283C33.1232 15.9055 30.6115 20.0948 27.369 23.6282C24.2481 27.0291 20.5627 29.6999 17.5 30.9282C14.4368 29.6999 10.7514 27.0291 7.63038 23.6281C4.38779 20.0946 1.87578 15.9049 1.24805 11.9271L1.24274 11.8934L1.23515 11.8602C1.08545 11.205 1 10.5336 1 9.84677C1 4.94127 4.89351 1 9.65558 1C12.5448 1 15.1045 2.45338 16.6822 4.69556Z" fill="#E5383B" stroke="#E5383B" stroke-width="2"/>
</svg>
